<svg width="33" height="33" viewBox="0 0 33 33" fill="none" xmlns="http://www.w3.org/2000/svg">
<path fill-rule="evenodd" clip-rule="evenodd" d="M32 1H1V31.2929L8.14645 24.1464L8.419 23.8739L8.75194 24.0681L14.3751 27.3483L23.1062 16.1918L23.4343 15.7726L23.8322 16.1263L32 23.3866V1ZM32 32H1.70711L8.581 25.1261L14.2481 28.4319L14.6249 28.6517L14.8938 28.3082L23.5657 17.2274L32 24.7245V32ZM1 0H0V1V32V33H1H32H33V32V1V0H32H1ZM15 18.5C15 19.8807 13.8807 21 12.5 21C11.1193 21 10 19.8807 10 18.5C10 17.1193 11.1193 16 12.5 16C13.8807 16 15 17.1193 15 18.5ZM16 18.5C16 20.433 14.433 22 12.5 22C10.567 22 9 20.433 9 18.5C9 16.567 10.567 15 12.5 15C14.433 15 16 16.567 16 18.5Z" fill="#CECECE"/>
</svg>
